<svg xmlns="http://www.w3.org/2000/svg" xmlns:xlink="http://www.w3.org/1999/xlink" viewBox="0 0 211.96 51.84"><defs><style>.cls-1{fill:#5e5ba8;}.cls-2{fill:#5c57a6;}.cls-3{fill:#868383;}.cls-4{fill:#fff;}.cls-5{opacity:0.6;}.cls-6{fill:url(#linear-gradient);}</style><linearGradient id="linear-gradient" x1="64.9" y1="39.98" x2="211.96" y2="39.98" gradientUnits="userSpaceOnUse"><stop offset="0" stop-color="#2d80c0" stop-opacity="0"/><stop offset="1" stop-color="#2d80c0"/></linearGradient></defs><title>DigiLocker</title><g id="Layer_2" data-name="Layer 2"><g id="Layer_1-2" data-name="Layer 1"><path class="cls-1" d="M32.56,18.75V0H15.2a3.35,3.35,0,0,0-3.34,3.34V48.5a3.35,3.35,0,0,0,3.34,3.34H52.58a3.35,3.35,0,0,0,3.34-3.34V18.75Z"/><path class="cls-2" d="M64.25,29.69V5.48h7.88a10.72,10.72,0,0,1,4.06.74,7.89,7.89,0,0,1,3,2.21,10.36,10.36,0,0,1,1.92,3.68,17.81,17.81,0,0,1,.67,5.12,20.08,20.08,0,0,1-.67,5.44,11.07,11.07,0,0,1-1.92,3.89,8,8,0,0,1-3,2.35,10.17,10.17,0,0,1-4.06.78ZM68.77,9.51V25.68H71.7A5.2,5.2,0,0,0,74,25.2a4.58,4.58,0,0,0,1.73-1.41,6.79,6.79,0,0,0,1.09-2.36,13.07,13.07,0,0,0,.38-3.32V16.35a10.75,10.75,0,0,0-.38-3,6,6,0,0,0-1.09-2.13A4.66,4.66,0,0,0,74,9.94a5.84,5.84,0,0,0-2.26-.43Z"/><path class="cls-2" d="M89.15,8H84.93V4.17h4.22Zm0,21.66H84.93V11.13h4.22Z"/><path class="cls-2" d="M108.21,8a5.47,5.47,0,0,1-.79,3.14,4,4,0,0,1-2.21,1.58,5.45,5.45,0,0,1,1.11,1.88,7.28,7.28,0,0,1,.38,2.4,7.15,7.15,0,0,1-.45,2.59,5.53,5.53,0,0,1-1.31,2,5.7,5.7,0,0,1-2.16,1.27,8.94,8.94,0,0,1-3,.45H98.06a1.3,1.3,0,0,0-.92.33,1.08,1.08,0,0,0-.35.81,1.06,1.06,0,0,0,.3.78,1,1,0,0,0,.78.31h6.43a4.12,4.12,0,0,1,1.65.33,3.9,3.9,0,0,1,1.34,1,4.48,4.48,0,0,1,.91,1.53,5.52,5.52,0,0,1,.34,2,5.8,5.8,0,0,1-.47,2.35,5.53,5.53,0,0,1-1.29,1.81,5.62,5.62,0,0,1-1.9,1.15,6.69,6.69,0,0,1-2.34.41H95.72a4,4,0,0,1-2.89-1.19A4.32,4.32,0,0,1,92,33.58a4.63,4.63,0,0,1-.31-1.73,3.77,3.77,0,0,1,.67-2.3A4.92,4.92,0,0,1,94,28.07a3.11,3.11,0,0,1-1.09-1.13,3.34,3.34,0,0,1-.4-1.66,2.89,2.89,0,0,1,.22-1.11,3.08,3.08,0,0,1,.59-.92,3.41,3.41,0,0,1,.87-.72,5.58,5.58,0,0,1,1-.49A5.21,5.21,0,0,1,93.55,20,7.08,7.08,0,0,1,93,17a7.39,7.39,0,0,1,.44-2.6,5.28,5.28,0,0,1,1.31-2,5.93,5.93,0,0,1,2.14-1.28,8.62,8.62,0,0,1,2.95-.46,9.72,9.72,0,0,1,1.66.13,6.57,6.57,0,0,1,1.44.4,3.9,3.9,0,0,0,.88-.83,4.69,4.69,0,0,0,.55-.91,4,4,0,0,0,.3-.83,3.58,3.58,0,0,0,.08-.63ZM97.6,29.48a1.64,1.64,0,0,0-.67.14,2,2,0,0,0-.53.37,1.6,1.6,0,0,0-.36.54,1.53,1.53,0,0,0-.13.64A1.63,1.63,0,0,0,97.6,32.9h4.75a2.07,2.07,0,0,0,1.37-.47,1.58,1.58,0,0,0,.55-1.26,1.6,1.6,0,0,0-.5-1.24,1.78,1.78,0,0,0-1.23-.45Zm2.22-15.64a2.36,2.36,0,0,0-2,.84A3.73,3.73,0,0,0,97.2,17a3.68,3.68,0,0,0,.66,2.32,2.72,2.72,0,0,0,4,0,3.68,3.68,0,0,0,.66-2.32,3.73,3.73,0,0,0-.66-2.35A2.37,2.37,0,0,0,99.82,13.84Z"/><path class="cls-2" d="M114.88,8h-4.22V4.17h4.22Zm0,21.66h-4.22V11.13h4.22Z"/><path class="cls-2" d="M118.91,5.48h4.52v20h10.24v4.24H118.91Z"/><path class="cls-2" d="M143.33,10.7a6.63,6.63,0,0,1,5.56,2.35c1.24,1.57,1.85,4,1.85,7.35s-.61,5.79-1.85,7.36a7.72,7.72,0,0,1-11.11,0q-1.86-2.36-1.86-7.36t1.86-7.35A6.61,6.61,0,0,1,143.33,10.7Zm0,3.57a2.37,2.37,0,0,0-2.31,1.4,9.5,9.5,0,0,0-.68,4.06v1.35a9.52,9.52,0,0,0,.68,4.07,2.61,2.61,0,0,0,4.63,0,9.52,9.52,0,0,0,.68-4.07V19.73a9.5,9.5,0,0,0-.68-4.06A2.37,2.37,0,0,0,143.33,14.27Z"/><path class="cls-2" d="M160.48,10.7a7.87,7.87,0,0,1,2.69.43,5.08,5.08,0,0,1,2.05,1.34,6,6,0,0,1,1.3,2.3,10.61,10.61,0,0,1,.46,3.34h-4.34a6,6,0,0,0-.54-2.9,1.75,1.75,0,0,0-1.62-.94,1.93,1.93,0,0,0-1.9,1.39,11.29,11.29,0,0,0-.56,4.07v1.35a11,11,0,0,0,.59,4.07,2.07,2.07,0,0,0,2,1.41,1.71,1.71,0,0,0,1.63-1,6.4,6.4,0,0,0,.5-2.89H167a11.09,11.09,0,0,1-.45,3.35,6.14,6.14,0,0,1-1.28,2.31,5,5,0,0,1-2,1.33,7.54,7.54,0,0,1-2.62.43,7.9,7.9,0,0,1-3.14-.57,5.29,5.29,0,0,1-2.2-1.78,8.09,8.09,0,0,1-1.28-3,19.75,19.75,0,0,1-.41-4.34q0-5,1.71-7.35A6,6,0,0,1,160.48,10.7Z"/><path class="cls-2" d="M174.39,18.51l5.19-7.38h4.53l-5.52,7.55,5.79,11H179.7L175.94,22l-1.55,1.89v5.79h-4.22V4.17h4.22Z"/><path class="cls-2" d="M192.57,10.7a5.75,5.75,0,0,1,5,2.35c1.12,1.57,1.67,4,1.67,7.35v1.07h-9.42a14.31,14.31,0,0,0,.18,2.21,5.69,5.69,0,0,0,.5,1.63,2.45,2.45,0,0,0,.87,1,2.35,2.35,0,0,0,1.31.35,2,2,0,0,0,1.73-.93,4.52,4.52,0,0,0,.65-2.6h4.18a8.87,8.87,0,0,1-.49,3.11,5.88,5.88,0,0,1-1.37,2.18,5.56,5.56,0,0,1-2.08,1.28,8,8,0,0,1-2.62.42,6.45,6.45,0,0,1-5.42-2.36q-1.86-2.36-1.86-7.36t1.85-7.35A6.32,6.32,0,0,1,192.57,10.7Zm0,3.46a2.08,2.08,0,0,0-2,1.11,7.45,7.45,0,0,0-.71,3.13h4.93a7.11,7.11,0,0,0-.55-3.13A1.79,1.79,0,0,0,192.57,14.16Z"/><path class="cls-2" d="M209.84,10.7a5.31,5.31,0,0,1,.72.05l.57.11a4.63,4.63,0,0,1,.46.13v4.09h-1.51a4.44,4.44,0,0,0-1.32.2,2.73,2.73,0,0,0-1.1.7,3.54,3.54,0,0,0-.76,1.31,6.34,6.34,0,0,0-.29,2.06V29.69h-4.22V11.13h3.52l.5,2.71h.2a11.42,11.42,0,0,1,.45-1.15,4,4,0,0,1,.65-1,3.25,3.25,0,0,1,.9-.71A2.54,2.54,0,0,1,209.84,10.7Z"/><path class="cls-3" d="M78.41,46.63v3h-.93v-3l-2.34-4.24h1L78,45.74h0l1.79-3.35h.91Z"/><path class="cls-3" d="M82.44,44a1.69,1.69,0,0,1,1.48.71,3.76,3.76,0,0,1,.51,2.19,3.78,3.78,0,0,1-.51,2.2,1.91,1.91,0,0,1-3,0,3.86,3.86,0,0,1-.5-2.2,3.85,3.85,0,0,1,.5-2.19A1.69,1.69,0,0,1,82.44,44Zm0,.77a.87.87,0,0,0-.81.48,3.08,3.08,0,0,0-.26,1.45v.41a3.06,3.06,0,0,0,.26,1.44.92.92,0,0,0,1.62,0,3,3,0,0,0,.27-1.44v-.41a3.06,3.06,0,0,0-.27-1.45A.87.87,0,0,0,82.44,44.72Z"/><path class="cls-3" d="M89,49.63h-.66L88.26,49h-.07a1.4,1.4,0,0,1-.58.6,1.73,1.73,0,0,1-.76.17,1.69,1.69,0,0,1-.56-.09,1.07,1.07,0,0,1-.44-.28,1.5,1.5,0,0,1-.27-.52,2.51,2.51,0,0,1-.1-.78v-4h.87V48a2,2,0,0,0,.05.48.71.71,0,0,0,.16.3.58.58,0,0,0,.25.15,1,1,0,0,0,.32,0,.81.81,0,0,0,.39-.1,1.15,1.15,0,0,0,.33-.3,1.79,1.79,0,0,0,.23-.48,2.43,2.43,0,0,0,.08-.64V44.08H89Z"/><path class="cls-3" d="M92.07,44h.16l.13,0,.12,0v.89h-.29a1.23,1.23,0,0,0-.39.07,1,1,0,0,0-.33.22,1.17,1.17,0,0,0-.23.4,2.17,2.17,0,0,0-.08.62v3.39h-.87V44.08H91l.12.72h.06a2,2,0,0,1,.13-.31,1,1,0,0,1,.19-.27.86.86,0,0,1,.26-.2A.8.8,0,0,1,92.07,44Z"/><path class="cls-3" d="M99.13,49.63h-.66L98.36,49H98.3a1.39,1.39,0,0,1-.51.58,1.29,1.29,0,0,1-.7.19,1.59,1.59,0,0,1-.72-.17,1.41,1.41,0,0,1-.54-.52,2.87,2.87,0,0,1-.34-.9,6.32,6.32,0,0,1-.12-1.32,5.54,5.54,0,0,1,.13-1.3,3.13,3.13,0,0,1,.36-.9,1.52,1.52,0,0,1,.52-.52A1.34,1.34,0,0,1,97,44a1.53,1.53,0,0,1,.72.17,1.12,1.12,0,0,1,.46.48h.05V42h.87Zm-1.86-4.91a.89.89,0,0,0-.44.1,1,1,0,0,0-.31.34,2.11,2.11,0,0,0-.18.61,5.52,5.52,0,0,0-.06.88v.41a5.61,5.61,0,0,0,.06.88,2,2,0,0,0,.18.59.86.86,0,0,0,.31.34.8.8,0,0,0,.44.11A.81.81,0,0,0,98,48.5a3.37,3.37,0,0,0,.24-1.44V46.7Q98.26,44.72,97.27,44.72Z"/><path class="cls-3" d="M102.17,44a1.67,1.67,0,0,1,1.47.71,3.76,3.76,0,0,1,.51,2.19,3.78,3.78,0,0,1-.51,2.2,1.9,1.9,0,0,1-3,0,3.78,3.78,0,0,1-.51-2.2,3.76,3.76,0,0,1,.51-2.19A1.68,1.68,0,0,1,102.17,44Zm0,.77a.88.88,0,0,0-.82.48,3.21,3.21,0,0,0-.26,1.45v.41a3.19,3.19,0,0,0,.26,1.44.88.88,0,0,0,.82.48.85.85,0,0,0,.8-.48,3,3,0,0,0,.27-1.44v-.41A3.06,3.06,0,0,0,103,45.2.85.85,0,0,0,102.17,44.72Z"/><path class="cls-3" d="M106.85,44a2,2,0,0,1,.77.14,1.31,1.31,0,0,1,.53.42,1.74,1.74,0,0,1,.3.69,3.73,3.73,0,0,1,.1.93h-.9a3.72,3.72,0,0,0,0-.62,1,1,0,0,0-.13-.44.64.64,0,0,0-.24-.27.93.93,0,0,0-.39-.08.79.79,0,0,0-.75.48,3.39,3.39,0,0,0-.24,1.45v.41a3.56,3.56,0,0,0,.23,1.44.79.79,0,0,0,.76.48.78.78,0,0,0,.39-.09.7.7,0,0,0,.27-.27,1.59,1.59,0,0,0,.14-.45,3.54,3.54,0,0,0,0-.6h.86a3.7,3.7,0,0,1-.09.83,2,2,0,0,1-.3.69,1.45,1.45,0,0,1-.53.48,1.55,1.55,0,0,1-.78.18,2,2,0,0,1-.85-.17,1.5,1.5,0,0,1-.59-.53,2.62,2.62,0,0,1-.34-.91,6,6,0,0,1-.12-1.29,4.15,4.15,0,0,1,.46-2.19A1.59,1.59,0,0,1,106.85,44Z"/><path class="cls-3" d="M113.08,49.63h-.66l-.11-.65h-.07a1.35,1.35,0,0,1-.58.6,1.73,1.73,0,0,1-.76.17,1.69,1.69,0,0,1-.56-.09,1,1,0,0,1-.43-.28,1.52,1.52,0,0,1-.28-.52,2.85,2.85,0,0,1-.1-.78v-4h.87V48a1.56,1.56,0,0,0,.06.48.62.62,0,0,0,.16.3.55.55,0,0,0,.24.15,1,1,0,0,0,.32,0,.78.78,0,0,0,.39-.1.94.94,0,0,0,.33-.3,1.53,1.53,0,0,0,.23-.48,2.43,2.43,0,0,0,.08-.64V44.08h.87Z"/><path class="cls-3" d="M119,44a1.51,1.51,0,0,1,.53.09.91.91,0,0,1,.41.29,1.22,1.22,0,0,1,.27.52,2.51,2.51,0,0,1,.1.78v4h-.87V45.69a2.14,2.14,0,0,0,0-.48,1.05,1.05,0,0,0-.15-.3.65.65,0,0,0-.23-.15.86.86,0,0,0-.28,0,.66.66,0,0,0-.37.1,1,1,0,0,0-.31.3,1.78,1.78,0,0,0-.2.48,2.49,2.49,0,0,0-.08.64v3.39h-.86V45.69a1.65,1.65,0,0,0-.06-.48.71.71,0,0,0-.15-.3.54.54,0,0,0-.22-.15.92.92,0,0,0-.29,0,.71.71,0,0,0-.37.1,1.07,1.07,0,0,0-.3.3,1.51,1.51,0,0,0-.21.48,2.49,2.49,0,0,0-.08.64v3.39h-.86V44.08H115l.12.64h.06a1.42,1.42,0,0,1,.54-.59,1.49,1.49,0,0,1,.73-.18,1.34,1.34,0,0,1,.72.19,1.09,1.09,0,0,1,.46.61,1.62,1.62,0,0,1,.59-.6A1.57,1.57,0,0,1,119,44Z"/><path class="cls-3" d="M123.45,44a2,2,0,0,1,.8.15,1.27,1.27,0,0,1,.57.46,2.15,2.15,0,0,1,.34.81,5.08,5.08,0,0,1,.12,1.19v.55h-3a2.63,2.63,0,0,0,.3,1.42,1,1,0,0,0,.91.45.92.92,0,0,0,.38-.08.81.81,0,0,0,.3-.25,1.43,1.43,0,0,0,.2-.39,2.12,2.12,0,0,0,.06-.52h.86a2.47,2.47,0,0,1-.13.84,1.78,1.78,0,0,1-.37.63,1.47,1.47,0,0,1-.58.4,2,2,0,0,1-.74.14,2.38,2.38,0,0,1-.91-.16,1.49,1.49,0,0,1-.65-.52,2.34,2.34,0,0,1-.4-.9,5.5,5.5,0,0,1-.14-1.32,3.68,3.68,0,0,1,.53-2.19A1.8,1.8,0,0,1,123.45,44Zm0,.77a1.12,1.12,0,0,0-.5.1.84.84,0,0,0-.34.31,1.35,1.35,0,0,0-.22.5,4.29,4.29,0,0,0-.11.7h2.09a2.41,2.41,0,0,0-.23-1.2A.75.75,0,0,0,123.45,44.72Z"/><path class="cls-3" d="M128.54,44a1.7,1.7,0,0,1,.57.09,1,1,0,0,1,.43.29,1.22,1.22,0,0,1,.27.52,2.51,2.51,0,0,1,.1.78v4h-.86V45.69a1.65,1.65,0,0,0-.06-.48.86.86,0,0,0-.16-.3.58.58,0,0,0-.25-.15,1,1,0,0,0-.32,0,.81.81,0,0,0-.39.1,1.15,1.15,0,0,0-.33.3,1.52,1.52,0,0,0-.22.48,2.11,2.11,0,0,0-.09.64v3.39h-.86V44.08H127l.12.64h.06a1.43,1.43,0,0,1,.58-.59A1.61,1.61,0,0,1,128.54,44Z"/><path class="cls-3" d="M132,44.08h.74v.77H132v3.62a.54.54,0,0,0,.12.38.48.48,0,0,0,.37.13h.25v.61a1.28,1.28,0,0,1-.28.1,1.37,1.37,0,0,1-.34,0,.93.93,0,0,1-.47-.11.86.86,0,0,1-.31-.29,1.35,1.35,0,0,1-.16-.41,2.42,2.42,0,0,1-.05-.47v-3.6h-.48v-.77h.48l.19-1.54H132Z"/><path class="cls-3" d="M135.16,44a1.79,1.79,0,0,1,.68.12,1.45,1.45,0,0,1,.5.33,1.37,1.37,0,0,1,.31.48,1.66,1.66,0,0,1,.1.59.49.49,0,0,1,0,.12v.08h-.9v-.09a1.73,1.73,0,0,0,0-.32.9.9,0,0,0-.13-.28.68.68,0,0,0-.24-.2.77.77,0,0,0-.36-.07.83.83,0,0,0-.38.07.9.9,0,0,0-.23.19.64.64,0,0,0-.12.25,1.13,1.13,0,0,0,0,.25.62.62,0,0,0,.11.37.89.89,0,0,0,.29.25,2.1,2.1,0,0,0,.4.18l.47.17a4.73,4.73,0,0,1,.47.2,1.5,1.5,0,0,1,.4.3,1.29,1.29,0,0,1,.29.45,1.82,1.82,0,0,1,.11.66,2,2,0,0,1-.14.77,1.45,1.45,0,0,1-.37.53,1.38,1.38,0,0,1-.56.3,2.28,2.28,0,0,1-.7.1,2,2,0,0,1-.82-.14,1.51,1.51,0,0,1-.56-.36,1.53,1.53,0,0,1-.31-.52,1.8,1.8,0,0,1-.1-.6V48a.26.26,0,0,0,0-.07h.91V48a1.18,1.18,0,0,0,.07.45.86.86,0,0,0,.19.31.79.79,0,0,0,.29.18,1.36,1.36,0,0,0,.36.05.86.86,0,0,0,.32-.05.6.6,0,0,0,.26-.16.61.61,0,0,0,.18-.26.78.78,0,0,0,.07-.35.71.71,0,0,0-.11-.43.86.86,0,0,0-.28-.29,2.23,2.23,0,0,0-.41-.2l-.46-.17-.47-.2a1.71,1.71,0,0,1-.4-.29,1.3,1.3,0,0,1-.29-.43,1.64,1.64,0,0,1-.11-.62,1.78,1.78,0,0,1,.12-.67,1.46,1.46,0,0,1,.35-.5,1.59,1.59,0,0,1,.54-.31A2.31,2.31,0,0,1,135.16,44Z"/><path class="cls-3" d="M142,44a1.75,1.75,0,0,1,1.26.41,1.52,1.52,0,0,1,.42,1.15v3.11a.38.38,0,0,0,.09.28A.32.32,0,0,0,144,49h.33v.61l-.22.08a1.16,1.16,0,0,1-.35,0,.84.84,0,0,1-.57-.19,1,1,0,0,1-.31-.5h-.05a1.53,1.53,0,0,1-.56.54,1.62,1.62,0,0,1-.79.19l-.3,0-.32-.08a1.34,1.34,0,0,1-.31-.17.94.94,0,0,1-.27-.29,1.36,1.36,0,0,1-.19-.42,2.42,2.42,0,0,1-.07-.58,1.9,1.9,0,0,1,.21-.94,1.45,1.45,0,0,1,.59-.56,2.59,2.59,0,0,1,.89-.28,7.87,7.87,0,0,1,1.12-.08v-.71a1.4,1.4,0,0,0,0-.37.56.56,0,0,0-.13-.28.62.62,0,0,0-.27-.19,1.33,1.33,0,0,0-.44-.06,1,1,0,0,0-.41.07.89.89,0,0,0-.26.21.72.72,0,0,0-.13.28,1.19,1.19,0,0,0,0,.32v.12h-.85a.31.31,0,0,1,0-.1v-.13a1.6,1.6,0,0,1,.13-.67,1.35,1.35,0,0,1,.37-.48,1.49,1.49,0,0,1,.56-.29A2.37,2.37,0,0,1,142,44Zm.81,3.16a6.08,6.08,0,0,0-.77,0,1.76,1.76,0,0,0-.6.15,1,1,0,0,0-.39.31,1,1,0,0,0-.14.53,1,1,0,0,0,.19.66.8.8,0,0,0,.56.18,1.15,1.15,0,0,0,.41-.08,1,1,0,0,0,.37-.26,1.27,1.27,0,0,0,.27-.42,1.66,1.66,0,0,0,.1-.61Z"/><path class="cls-3" d="M147.31,44a1.6,1.6,0,0,1,.56.09.92.92,0,0,1,.43.29,1.35,1.35,0,0,1,.28.52,2.51,2.51,0,0,1,.1.78v4h-.87V45.69a2.14,2.14,0,0,0-.05-.48,1.06,1.06,0,0,0-.16-.3.64.64,0,0,0-.25-.15,1.08,1.08,0,0,0-.32,0,.76.76,0,0,0-.39.1.94.94,0,0,0-.33.3,1.79,1.79,0,0,0-.23.48,2.49,2.49,0,0,0-.08.64v3.39h-.87V44.08h.66l.12.64H146a1.36,1.36,0,0,1,.57-.59A1.65,1.65,0,0,1,147.31,44Z"/><path class="cls-3" d="M152.13,49.34a8.68,8.68,0,0,1-.28.86,3.09,3.09,0,0,1-.38.7,1.56,1.56,0,0,1-.49.47,1.18,1.18,0,0,1-.65.18l-.33,0a1,1,0,0,1-.29-.07v-.6H150a1,1,0,0,0,.34-.06.82.82,0,0,0,.31-.2,1.39,1.39,0,0,0,.25-.38,3.12,3.12,0,0,0,.2-.59l-1.7-5.55h.94l1.23,4.3h0l1-4.3h.88Z"/><path class="cls-3" d="M155.13,44.08h.75v.77h-.75v3.62a.54.54,0,0,0,.12.38.49.49,0,0,0,.37.13h.26v.61a1.39,1.39,0,0,1-.29.1,1.37,1.37,0,0,1-.34,0,1,1,0,0,1-.47-.11.86.86,0,0,1-.31-.29,1.67,1.67,0,0,1-.16-.41,2.42,2.42,0,0,1-.05-.47v-3.6h-.48v-.77h.48l.19-1.54h.68Z"/><path class="cls-3" d="M157.44,43h-.86V42h.86Zm0,6.6h-.86V44.08h.86Z"/><path class="cls-3" d="M163.23,44a1.53,1.53,0,0,1,.54.09,1,1,0,0,1,.41.29,1.49,1.49,0,0,1,.27.52,2.88,2.88,0,0,1,.09.78v4h-.86V45.69a1.65,1.65,0,0,0-.06-.48.71.71,0,0,0-.15-.3.51.51,0,0,0-.23-.15.82.82,0,0,0-.28,0,.71.71,0,0,0-.37.1,1.07,1.07,0,0,0-.3.3,1.51,1.51,0,0,0-.21.48,2.51,2.51,0,0,0-.07.64v3.39h-.87V45.69a2.14,2.14,0,0,0,0-.48,1.05,1.05,0,0,0-.15-.3.57.57,0,0,0-.23-.15.86.86,0,0,0-.28,0,.69.69,0,0,0-.37.1,1,1,0,0,0-.31.3,2.16,2.16,0,0,0-.21.48,2.51,2.51,0,0,0-.07.64v3.39h-.87V44.08h.66l.12.64h.06a1.36,1.36,0,0,1,.54-.59,1.45,1.45,0,0,1,.72-.18,1.29,1.29,0,0,1,.72.19,1.09,1.09,0,0,1,.46.61,1.7,1.7,0,0,1,.59-.6A1.6,1.6,0,0,1,163.23,44Z"/><path class="cls-3" d="M167.71,44a2,2,0,0,1,.8.15,1.27,1.27,0,0,1,.57.46,2.33,2.33,0,0,1,.34.81,5.08,5.08,0,0,1,.12,1.19v.55h-3a2.63,2.63,0,0,0,.3,1.42,1,1,0,0,0,.91.45.81.81,0,0,0,.68-.33,1.42,1.42,0,0,0,.19-.39,1.72,1.72,0,0,0,.07-.52h.86a2.47,2.47,0,0,1-.14.84,1.64,1.64,0,0,1-.37.63,1.51,1.51,0,0,1-.57.4,2,2,0,0,1-.74.14,2.31,2.31,0,0,1-.91-.16,1.58,1.58,0,0,1-.66-.52,2.5,2.5,0,0,1-.4-.9,5.55,5.55,0,0,1-.13-1.32,3.68,3.68,0,0,1,.52-2.19A1.81,1.81,0,0,1,167.71,44Zm0,.77a1.09,1.09,0,0,0-.5.1.87.87,0,0,0-.35.31,1.54,1.54,0,0,0-.21.5,3.43,3.43,0,0,0-.11.7h2.09a2.4,2.4,0,0,0-.24-1.2A.72.72,0,0,0,167.71,44.72Z"/><path class="cls-3" d="M171.72,49.53l-.5,1.41h-.56l.43-1.31h-.43V48.48h1.06Z"/><path class="cls-3" d="M177.16,44a1.71,1.71,0,0,1,1.25.41,1.52,1.52,0,0,1,.42,1.15v3.11a.38.38,0,0,0,.09.28.34.34,0,0,0,.21.08h.33v.61l-.21.08a1.28,1.28,0,0,1-.36,0,.83.83,0,0,1-.56-.19A.9.9,0,0,1,178,49H178a1.63,1.63,0,0,1-.57.54,1.55,1.55,0,0,1-.78.19l-.3,0-.33-.08a1.59,1.59,0,0,1-.31-.17,1.26,1.26,0,0,1-.27-.29,1.16,1.16,0,0,1-.18-.42,2,2,0,0,1-.07-.58,1.9,1.9,0,0,1,.21-.94,1.45,1.45,0,0,1,.59-.56,2.52,2.52,0,0,1,.89-.28,7.66,7.66,0,0,1,1.12-.08v-.71a2,2,0,0,0,0-.37.66.66,0,0,0-.13-.28.77.77,0,0,0-.27-.19,1.37,1.37,0,0,0-.44-.06,1,1,0,0,0-.41.07.69.69,0,0,0-.26.21.74.74,0,0,0-.14.28,1.17,1.17,0,0,0,0,.32v.12h-.86s0-.06,0-.1v-.13a1.6,1.6,0,0,1,.14-.67,1.32,1.32,0,0,1,.36-.48,1.54,1.54,0,0,1,.57-.29A2.37,2.37,0,0,1,177.16,44Zm.81,3.16a6.24,6.24,0,0,0-.78,0,1.65,1.65,0,0,0-.59.15.87.87,0,0,0-.39.31,1,1,0,0,0-.14.53.91.91,0,0,0,.19.66.79.79,0,0,0,.56.18,1.24,1.24,0,0,0,.41-.08,1.1,1.1,0,0,0,.36-.26,1.27,1.27,0,0,0,.27-.42,1.66,1.66,0,0,0,.11-.61Z"/><path class="cls-3" d="M182.42,44A1.7,1.7,0,0,1,183,44a1,1,0,0,1,.43.29,1.22,1.22,0,0,1,.27.52,2.51,2.51,0,0,1,.1.78v4h-.86V45.69a1.65,1.65,0,0,0-.06-.48.86.86,0,0,0-.16-.3.58.58,0,0,0-.25-.15,1,1,0,0,0-.32,0,.81.81,0,0,0-.39.1,1,1,0,0,0-.32.3,1.34,1.34,0,0,0-.23.48,2.11,2.11,0,0,0-.09.64v3.39h-.86V44.08h.65l.12.64h.06a1.43,1.43,0,0,1,.58-.59A1.61,1.61,0,0,1,182.42,44Z"/><path class="cls-3" d="M187.24,49.34a6.67,6.67,0,0,1-.28.86,3.53,3.53,0,0,1-.37.7,1.59,1.59,0,0,1-.5.47,1.14,1.14,0,0,1-.64.18l-.34,0a.89.89,0,0,1-.28-.07v-.6h.3a1,1,0,0,0,.34-.06.75.75,0,0,0,.31-.2,1.41,1.41,0,0,0,.26-.38,3.15,3.15,0,0,0,.19-.59l-1.7-5.55h.95l1.22,4.3h.05l1-4.3h.88Z"/><path class="cls-3" d="M193.6,49.63h-1l-.58-3.17c0-.14-.05-.29-.07-.44s0-.29-.06-.41,0-.29,0-.42h0c0,.13,0,.27,0,.42s0,.26-.05.41-.05.3-.07.44l-.57,3.17h-1l-1.38-5.55h.94l.7,3.12c0,.11.05.25.08.4s0,.29.07.43.05.32.07.49h.05c0-.14,0-.29,0-.44s0-.28.06-.43,0-.31.07-.45l.56-3.12h1L193,47.2c0,.14.05.29.06.45l.06.42c0,.15,0,.3,0,.45h.05a3.27,3.27,0,0,1,.06-.42c0-.13,0-.27.07-.43a4.3,4.3,0,0,1,.09-.47l.69-3.12H195Z"/><path class="cls-3" d="M196.5,44.66h.06a1.32,1.32,0,0,1,1.25-.71,1.6,1.6,0,0,1,.56.09.92.92,0,0,1,.43.29,1.35,1.35,0,0,1,.28.52,2.51,2.51,0,0,1,.1.78v4h-.87V45.69a2.14,2.14,0,0,0-.05-.48,1.06,1.06,0,0,0-.16-.3.58.58,0,0,0-.25-.15,1.08,1.08,0,0,0-.32,0,.76.76,0,0,0-.39.1.94.94,0,0,0-.33.3,1.79,1.79,0,0,0-.23.48,2.49,2.49,0,0,0-.08.64v3.39h-.87V42h.87Z"/><path class="cls-3" d="M202.34,44a2,2,0,0,1,.8.15,1.27,1.27,0,0,1,.57.46,2.33,2.33,0,0,1,.35.81,5.74,5.74,0,0,1,.11,1.19v.55h-3a2.83,2.83,0,0,0,.3,1.42,1,1,0,0,0,.91.45.92.92,0,0,0,.38-.08.81.81,0,0,0,.3-.25,1.43,1.43,0,0,0,.2-.39,2.11,2.11,0,0,0,.07-.52h.85a2.47,2.47,0,0,1-.13.84,1.78,1.78,0,0,1-.37.63,1.47,1.47,0,0,1-.58.4,2,2,0,0,1-.74.14,2.29,2.29,0,0,1-.9-.16,1.52,1.52,0,0,1-.66-.52,2.34,2.34,0,0,1-.4-.9,5.55,5.55,0,0,1-.13-1.32,3.68,3.68,0,0,1,.52-2.19A1.8,1.8,0,0,1,202.34,44Zm0,.77a1,1,0,0,0-.49.1.87.87,0,0,0-.35.31,1.35,1.35,0,0,0-.22.5,4.29,4.29,0,0,0-.11.7h2.09a2.41,2.41,0,0,0-.23-1.2A.75.75,0,0,0,202.34,44.72Z"/><path class="cls-3" d="M207,44h.16l.13,0,.12,0v.89h-.29a1.34,1.34,0,0,0-.39.07.87.87,0,0,0-.32.22,1,1,0,0,0-.23.4,1.85,1.85,0,0,0-.09.62v3.39h-.86V44.08h.65l.12.72h.06c0-.1.08-.21.13-.31a1.31,1.31,0,0,1,.19-.27,1.05,1.05,0,0,1,.27-.2A.78.78,0,0,1,207,44Z"/><path class="cls-3" d="M210,44a2,2,0,0,1,.79.15,1.35,1.35,0,0,1,.58.46,2.33,2.33,0,0,1,.34.81,5.13,5.13,0,0,1,.11,1.19v.55h-3a2.63,2.63,0,0,0,.3,1.42,1,1,0,0,0,.91.45.91.91,0,0,0,.37-.08.81.81,0,0,0,.3-.25,1.2,1.2,0,0,0,.2-.39,1.72,1.72,0,0,0,.07-.52h.85a2.47,2.47,0,0,1-.13.84,1.64,1.64,0,0,1-.37.63,1.51,1.51,0,0,1-.57.4,2,2,0,0,1-.74.14,2.31,2.31,0,0,1-.91-.16,1.58,1.58,0,0,1-.66-.52,2.34,2.34,0,0,1-.4-.9,5.55,5.55,0,0,1-.13-1.32,3.68,3.68,0,0,1,.52-2.19A1.81,1.81,0,0,1,210,44Zm0,.77a1.09,1.09,0,0,0-.5.1.87.87,0,0,0-.35.31,1.79,1.79,0,0,0-.22.5,4.36,4.36,0,0,0-.1.7H211a2.4,2.4,0,0,0-.24-1.2A.72.72,0,0,0,210,44.72Z"/><path class="cls-1" d="M9,44.89a9,9,0,0,1-4.07-17,11.8,11.8,0,0,1,21.76-6A9.47,9.47,0,0,1,30,21.24a9.33,9.33,0,0,1,8.93,6.55,9,9,0,0,1,5,8.09,9,9,0,0,1-7.69,8.92v.09H9Z"/><path class="cls-4" d="M37.79,28.72a8.06,8.06,0,0,0-11.64-5.24A10.52,10.52,0,0,0,6.22,28.16c0,.17,0,.35,0,.52A7.72,7.72,0,0,0,9,43.6H34.94a7.72,7.72,0,0,0,2.85-14.88Z"/><polygon class="cls-5" points="35.14 16.59 55.92 16.59 35.14 0 35.14 16.59"/><polygon class="cls-1" points="35.14 16.59 55.92 16.59 35.14 0 35.14 16.59"/><circle class="cls-1" cx="19.91" cy="30.9" r="1.91"/><polygon class="cls-1" points="20.46 31.6 19.35 31.6 18.06 36.93 21.76 36.93 20.46 31.6"/><rect class="cls-6" x="64.9" y="39.64" width="147.06" height="0.68"/></g></g></svg>